HIERARCHY
ROOT hips
{
  OFFSET 0 11.86390953 0.3628582958
  CHANNELS 6 Xposition Yposition Zposition Yrotation Xrotation Zrotation
  JOINT spine
  {
    OFFSET 0 0.05383551117999996 0
    CHANNELS 3 Yrotation Xrotation Zrotation
    JOINT chest
    {
      OFFSET 0 0.6394558760401424 0
      CHANNELS 3 Yrotation Xrotation Zrotation
      JOINT neck
      {
        OFFSET 0 2.720089088562982 0
        CHANNELS 3 Yrotation Xrotation Zrotation
        JOINT head
        {
          OFFSET 0 0.37880844870545777 0
          CHANNELS 3 Yrotation Xrotation Zrotation
          JOINT rightEye
          {
            OFFSET -0.42867780714 0.7547055649100001 0.7381831347
            CHANNELS 3 Yrotation Xrotation Zrotation
            End Site
            {
              OFFSET -0.42867780714 0.7547055649100001 0.7381831347
            }
          }
          JOINT leftEye
          {
            OFFSET 0.428676479 0.7547055559999993 0.7381844503
            CHANNELS 3 Yrotation Xrotation Zrotation
            End Site
            {
              OFFSET 0.428676479 0.7547055559999993 0.7381844503
            }
          }
          JOINT jaw
          {
            OFFSET -0.18933892286100001 1.5626303011000007 1.137441874206
            CHANNELS 3 Yrotation Xrotation Zrotation
            End Site
            {
              OFFSET -0.18933892286100001 1.5626303011000007 1.137441874206
            }
          }
        }
      }
      JOINT rightShoulder
      {
        OFFSET -0.6795351508 2.0665205 0
        CHANNELS 3 Yrotation Xrotation Zrotation
        JOINT rightUpperArm
        {
          OFFSET -0.7287400483531672 0 0
          CHANNELS 3 Yrotation Xrotation Zrotation
          JOINT rightLowerArm
          {
            OFFSET -1.9872982039174532 0 0
            CHANNELS 3 Yrotation Xrotation Zrotation
            JOINT rightHand
            {
              OFFSET -2.6451847532219275 0 0
              CHANNELS 3 Yrotation Xrotation Zrotation
              JOINT rightLittleProximal
              {
                OFFSET -0.8008804099999995 -0.09592044000000044 -0.26183688629999996
                CHANNELS 3 Yrotation Xrotation Zrotation
                JOINT rightLittleIntermediate
                {
                  OFFSET -0.2473955153999997 -0.02541697026000067 0.002370178700999967
                  CHANNELS 3 Yrotation Xrotation Zrotation
                  JOINT rightLittleDistal
                  {
                    OFFSET -0.163687229200001 -0.015790700860001117 -0.0004274845300000635
                    CHANNELS 3 Yrotation Xrotation Zrotation
                    End Site
                    {
                      OFFSET -0.163687229200001 -0.015790700860001117 -0.0004274845300000635
                    }
                  }
                }
              }
              JOINT rightRingProximal
              {
                OFFSET -0.8393382799999985 -0.06223833561000025 -0.09213143500000005
                CHANNELS 3 Yrotation Xrotation Zrotation
                JOINT rightRingIntermediate
                {
                  OFFSET -0.3284497260000011 -0.03264224524000103 0.009408593183000052
                  CHANNELS 3 Yrotation Xrotation Zrotation
                  JOINT rightRingDistal
                  {
                    OFFSET -0.19447660429999902 -0.021730899850000318 0.003074347969000052
                    CHANNELS 3 Yrotation Xrotation Zrotation
                    End Site
                    {
                      OFFSET -0.19447660429999902 -0.021730899850000318 0.003074347969000052
                    }
                  }
                }
              }
              JOINT rightMiddleProximal
              {
                OFFSET -0.8473005199999989 -0.06735503500000095 0.10541820299999995
                CHANNELS 3 Yrotation Xrotation Zrotation
                JOINT rightMiddleIntermediate
                {
                  OFFSET -0.3450455799999995 -0.02481901642000084 0.019012570390000032
                  CHANNELS 3 Yrotation Xrotation Zrotation
                  JOINT rightMiddleDistal
                  {
                    OFFSET -0.23542332000000088 -0.025003910029999243 0.0075583457949999905
                    CHANNELS 3 Yrotation Xrotation Zrotation
                    End Site
                    {
                      OFFSET -0.23542332000000088 -0.025003910029999243 0.0075583457949999905
                    }
                  }
                }
              }
              JOINT rightIndexProximal
              {
                OFFSET -0.8008568281999987 -0.09897839600000169 0.29462796
                CHANNELS 3 Yrotation Xrotation Zrotation
                JOINT rightIndexIntermediate
                {
                  OFFSET -0.30524754480000016 -0.024634122809999992 0.02743375304999998
                  CHANNELS 3 Yrotation Xrotation Zrotation
                  JOINT rightIndexDistal
                  {
                    OFFSET -0.23067378950000017 -0.016876459159999913 0.008484125099999983
                    CHANNELS 3 Yrotation Xrotation Zrotation
                    End Site
                    {
                      OFFSET -0.23067378950000017 -0.016876459159999913 0.008484125099999983
                    }
                  }
                }
              }
              JOINT rightThumbProximal
              {
                OFFSET -0.25574064999999935 -0.12833189930000155 0.22385698609999993
                CHANNELS 3 Yrotation Xrotation Zrotation
                JOINT rightThumbIntermediate
                {
                  OFFSET -0.22791743260000086 -0.07103586192999978 0.27385039
                  CHANNELS 3 Yrotation Xrotation Zrotation
                  JOINT rightThumbDistal
                  {
                    OFFSET -0.13610267659999975 -0.03369390969999997 0.14246511509999996
                    CHANNELS 3 Yrotation Xrotation Zrotation
                    End Site
                    {
                      OFFSET -0.13610267659999975 -0.03369390969999997 0.14246511509999996
                    }
                  }
                }
              }
            }
          }
        }
      }
      JOINT leftShoulder
      {
        OFFSET 0.6795338396 2.0665205 0
        CHANNELS 3 Yrotation Xrotation Zrotation
        JOINT leftUpperArm
        {
          OFFSET 0.7287383950230443 0 0
          CHANNELS 3 Yrotation Xrotation Zrotation
          JOINT leftLowerArm
          {
            OFFSET 1.9872997282019604 0 0
            CHANNELS 3 Yrotation Xrotation Zrotation
            JOINT leftHand
            {
              OFFSET 2.6451820781302327 0 0
              CHANNELS 3 Yrotation Xrotation Zrotation
              JOINT leftLittleProximal
              {
                OFFSET 0.8008804099999995 -0.09592306899999814 -0.2618342639000001
                CHANNELS 3 Yrotation Xrotation Zrotation
                JOINT leftLittleIntermediate
                {
                  OFFSET 0.2473981400000007 -0.02542352681000093 0.0023609995859999455
                  CHANNELS 3 Yrotation Xrotation Zrotation
                  JOINT leftLittleDistal
                  {
                    OFFSET 0.1636846068000002 -0.015794634789999318 -0.00043272972159996703
                    CHANNELS 3 Yrotation Xrotation Zrotation
                    End Site
                    {
                      OFFSET 0.1636846068000002 -0.015794634789999318 -0.00043272972159996703
                    }
                  }
                }
              }
              JOINT leftRingProximal
              {
                OFFSET 0.8393409199999996 -0.062242267999998324 -0.0921281570000001
                CHANNELS 3 Yrotation Xrotation Zrotation
                JOINT leftRingIntermediate
                {
                  OFFSET 0.3284471036000003 -0.03264224524000103 0.009405970574000042
                  CHANNELS 3 Yrotation Xrotation Zrotation
                  JOINT leftRingDistal
                  {
                    OFFSET 0.1944779099999996 -0.021732211159998904 0.003073036670000001
                    CHANNELS 3 Yrotation Xrotation Zrotation
                    End Site
                    {
                      OFFSET 0.1944779099999996 -0.021732211159998904 0.003073036670000001
                    }
                  }
                }
              }
              JOINT leftMiddleProximal
              {
                OFFSET 0.8473005200000001 -0.06736028199999788 0.1054214809999999
                CHANNELS 3 Yrotation Xrotation Zrotation
                JOINT leftMiddleIntermediate
                {
                  OFFSET 0.3450455799999995 -0.024824261000000014 0.019013225990000007
                  CHANNELS 3 Yrotation Xrotation Zrotation
                  JOINT leftMiddleDistal
                  {
                    OFFSET 0.2354259489999998 -0.025005222000000327 0.0075590014499999705
                    CHANNELS 3 Yrotation Xrotation Zrotation
                    End Site
                    {
                      OFFSET 0.2354259489999998 -0.025005222000000327 0.0075590014499999705
                    }
                  }
                }
              }
              JOINT leftIndexProximal
              {
                OFFSET 0.8008594516999996 -0.09898495199999946 0.29463124239999994
                CHANNELS 3 Yrotation Xrotation Zrotation
                JOINT leftIndexIntermediate
                {
                  OFFSET 0.30524754480000016 -0.024632811499998963 0.02743047472
                  CHANNELS 3 Yrotation Xrotation Zrotation
                  JOINT leftIndexDistal
                  {
                    OFFSET 0.23067378950000017 -0.016876459159999913 0.008481502700000004
                    CHANNELS 3 Yrotation Xrotation Zrotation
                    End Site
                    {
                      OFFSET 0.23067378950000017 -0.016876459159999913 0.008481502700000004
                    }
                  }
                }
              }
              JOINT leftThumbProximal
              {
                OFFSET 0.25574326469999953 -0.12833321050000013 0.22385764169999997
                CHANNELS 3 Yrotation Xrotation Zrotation
                JOINT leftThumbIntermediate
                {
                  OFFSET 0.22804987480000094 -0.07138466829999968 0.273648441
                  CHANNELS 3 Yrotation Xrotation Zrotation
                  JOINT leftThumbDistal
                  {
                    OFFSET 0.13614857189999907 -0.033867001519998885 0.14238119169999996
                    CHANNELS 3 Yrotation Xrotation Zrotation
                    End Site
                    {
                      OFFSET 0.13614857189999907 -0.033867001519998885 0.14238119169999996
                    }
                  }
                }
              }
            }
          }
        }
      }
    }
  }
  JOINT rightUpperLeg
  {
    OFFSET -0.9749898906000001 -1.8495733739999998 0
    CHANNELS 3 Yrotation Xrotation Zrotation
    JOINT rightLowerLeg
    {
      OFFSET 0 -4.1566544686813165 0
      CHANNELS 3 Yrotation Xrotation Zrotation
      JOINT rightFoot
      {
        OFFSET 0.14539718599999998 -4.225553926 -0.3666210900000001
        CHANNELS 3 Yrotation Xrotation Zrotation
        JOINT rightToes
        {
          OFFSET 0.1706738473 -0.9584117400000015 1.0093348617
          CHANNELS 3 Yrotation Xrotation Zrotation
          End Site
          {
            OFFSET 0.1706738473 -0.9584117400000015 1.0093348617
          }
        }
      }
    }
  }
  JOINT leftUpperLeg
  {
    OFFSET 0.9749898906000001 -1.8495733739999998 0
    CHANNELS 3 Yrotation Xrotation Zrotation
    JOINT leftLowerLeg
    {
      OFFSET 0 -4.156653488267941 0
      CHANNELS 3 Yrotation Xrotation Zrotation
      JOINT leftFoot
      {
        OFFSET -0.14537357999999995 -4.225555399999999 -0.36661124279999996
        CHANNELS 3 Yrotation Xrotation Zrotation
        JOINT leftToes
        {
          OFFSET -0.17066467000000002 -0.9584157000000019 1.0093348617
          CHANNELS 3 Yrotation Xrotation Zrotation
          End Site
          {
            OFFSET -0.17066467000000002 -0.9584157000000019 1.0093348617
          }
        }
      }
    }
  }
}
MOTION
Frames: 4
Frame Time: 0.03333333333333333
-0.568320631980896 -0.668834494904786 0.9018246531486511 -2.9766926398508553 -11.347321952777428 -3.6468957323616773 -0.472210014874792 -1.5847278134598832 3.669299492217656 -0.13364661099448782 -1.4539638377145518 1.5678233112877957 -0.500838811075506 -12.341344927220458 3.886446901504339 -2.5865994421445633 -46.3024470437243 10.385410301185605 0 0 0 0 0 0 0 0 0 -5.38600733081478 -0.30875384579645127 3.4397567685877557 16.5917873637648 -1.2791418862716686 74.12781498984972 6.330192600614731 0.004522469024370468 -0.08160019747579353 2.679625876802682 16.287877889331437 4.504307058626064 -0.26732267143726457 -0.7056845452376415 28.565070763439515 -2.6942529116238427 0.5819886558913365 26.425284260130546 -1.3710667099096745 0.11870254281005985 12.150729035732816 -5.521902151738926 1.8542051681227008 23.62204437043133 -2.4625559094078917 0.49935216696776036 23.01649808048983 -1.2792961183333103 0.017069640169309095 11.506120060490607 -2.025930242199152 0.31424587930462533 23.644261289247662 -3.182108057985461 0.9075053083565097 31.6619567583141 -1.415277542624349 0.16875246048291784 12.805527524350314 2.9911477894355913 -2.720629207114301 30.383446447537974 -2.462385910233236 0.5150110425423899 23.546286105987853 -0.6994929353214362 0.03819189269655055 6.350199661401043 -7.052928595977625 -2.8713718989209407 -12.285473540568901 -24.231445823248713 -1.7128036896808725 6.148224637479912 -8.316893286598184 -4.023977903164505 -3.9184730960869447 8.24413531973698 -1.241390302152952 -1.2791604770360367 -40.341520975113895 3.778472276063962 -79.47732597597124 -8.950378165069722 0.008981464507854859 0.11513899176444402 4.266629110610632 -11.12614837537531 -7.8591920369674115 4.601137492507874 1.886821974236428 -34.755301874820034 -1.9086001010463671 0.48114130880384925 -21.29498576368165 0.5257676319502407 0.04070590650025068 -4.971074209378656 4.004039832712311 1.4051018904341805 -30.962278407181767 2.845744588170265 0.696301671032256 -27.480033046019695 1.1672222523960396 0.11164114013401956 -10.913559259154578 1.175664813723469 -0.23802106448727345 -27.941957667452265 3.01039502666914 0.782740227332058 -29.188659863835266 0.7517904975408536 0.045855256955505616 -6.982131507960717 -0.9747539907435525 -1.7570708027199224 -30.352804924123966 2.012494738290789 0.3359776233889204 -18.935382396219534 0.5266189372436381 0.0231331693289374 -4.971154291590643 10.578551023253594 2.2096951527293616 9.372940173100405 11.781188804553857 -3.271429346860312 6.132878487569287 16.790870871492263 2.0325232323906253 -0.903793564983455 -14.538348639217288 3.922358710794243 -6.110755377744424 -6.577157282026909 29.41910042517917 -5.786321032859825 -2.3498963486869693 -20.466490186603775 12.281123977092452 -0.000006151529841857778 -0.003394526479492806 -7.754149057864386e-7 20.031177108243586 -0.99530434842002 18.31686455737868 4.45452307954044 31.784409626639956 3.5369427008651693 3.795146937545576 -19.69355617916303 -14.878472970211023 -0.000009144266713604708 -0.00004606118331640787 0.0000018257983817827543
-0.5639443397521973 -0.6691835397045907 0.8870506882667542 -2.903425130189475 -11.306888551112284 -3.6407286155089715 -0.4902345250416372 -1.4011052448776453 3.677987363300712 -0.14160033561496554 -1.4323297150082466 1.5775833731269586 -0.5007679812796276 -12.28140357339041 3.8845131273488245 -2.520944754341281 -46.176867716446935 10.253918601788383 0 0 0 0 0 0 0 0 0 -5.338796147905147 -0.30209949280861437 3.3777620853382144 16.528300494586727 -1.2650303324589234 74.0880641985381 6.34782536457607 0.004532609670859682 -0.08182352575742531 2.547285043447252 16.55887687556342 4.499129017688793 -0.27285054865613106 -0.7012126220875311 28.539544586820153 -2.6884064088700677 0.5792683933759409 26.366025754764248 -1.3698324904310333 0.11846878175307765 12.139181509198457 -5.535415911848855 1.8576472546657787 23.580051867813047 -2.456857610822639 0.49694203295515676 22.95960229079965 -1.278115353755744 0.017065524713347307 11.495632967119736 -2.035545885052096 0.3188810071369215 23.592022835818284 -3.1774903014727425 0.9047024458741652 31.612320431103228 -1.414407302789257 0.16913994200068946 12.798508628824896 2.9808086643194303 -2.708930263917873 30.342118742706425 -2.4569697477738632 0.5126766247939141 23.49213083283239 -0.6986920834313581 0.0381023331552301 6.3428420563824375 -7.034229396997108 -2.8824116588702533 -12.294087267662492 -24.23143663198763 -1.7128037964502822 6.14820983443769 -8.311255754192208 -4.041683759850167 -3.98693233969298 8.16668455265476 -1.2108505493123887 -1.3631206674008267 -40.178561685303706 3.505054272324403 -79.32871949280269 -8.701897941045878 0.008496891262062734 0.11197464583685898 4.366515965932846 -11.029905451087389 -7.943629203839926 4.688314632560159 1.9384741763639861 -34.70239137928677 -1.910239660394314 0.48042843607227004 -21.27836556571159 0.5257720607157804 0.04071808611799769 -4.971066258389139 4.04471276769644 1.4257631137850857 -31.068451302554585 2.846066295883426 0.6964622456987888 -27.483367790343838 1.154320880424423 0.10917077485254423 -10.791454263512643 1.1363796214704105 -0.2551433601076805 -27.990668666013665 2.994133983855537 0.7736867769074448 -29.01583937172776 0.7502860085212768 0.04568435209432626 -6.9679653161190105 -0.9192082494664525 -1.7250794352142091 -30.23737127087424 2.0032130063237026 0.3327779988007547 -18.844376037340158 0.5266255537104347 0.023130816448638496 -4.97113230632232 10.610554766220073 2.153512194541645 9.37577487800852 11.750248697466082 -3.2947558016434892 6.06425243609277 16.741226203384127 2.014521715453644 -0.9385802353685246 -14.484853986233672 3.77008240194706 -6.069125384814467 -6.71772253886423 29.494189300355053 -5.891472784583149 -2.3524084602345434 -20.422939978423013 12.318780831122265 -0.000006151529841857778 -0.003394526479492806 -7.754149057864386e-7 19.96999266995448 -1.1883419569363722 18.25324657289406 4.406769731641359 31.93363495139509 3.487845350989396 3.7874718122537168 -19.693015718550207 -14.783874402404958 -0.000007657696014594153 -0.00003962624030265917 -0.0000016087806374243899
-0.555358350276947 -0.6669939034741219 0.8526346683502197 -2.77578750584726 -11.175802114514367 -3.6362680501488307 -0.5273312787913362 -0.9844127334530526 3.7029201860574275 -0.1583115188846551 -1.3724069497067564 1.594621153875559 -0.4977188382188132 -12.125697286263799 3.8775610405664103 -2.379173623988738 -45.962240528953956 9.95009467760072 0 0 0 0 0 0 0 0 0 -5.221295090485119 -0.28057157869635135 3.2853298940332207 16.516118140704243 -1.3171821438109055 73.9671563262958 6.396510699311879 0.004618127941759682 -0.08245842586374845 2.05059661801748 17.194354028871665 4.564761924645597 -0.2589949068994565 -0.7066408443525404 28.50344885666979 -2.6771840492443575 0.5740532264444224 26.252568401452862 -1.3672299088260327 0.11794940612630658 12.114726895573966 -5.539479199228043 1.8549406524869556 23.508236273100373 -2.445609251164914 0.49215527941551823 22.847425373073513 -1.275744328845635 0.017060405406296095 11.474391252550124 -2.038986981481877 0.3212132062776518 23.503451895616333 -3.1683434290229346 0.899153296867727 31.514211071327686 -1.412746733640733 0.16919418354407498 12.78369452519223 2.969334353183867 -2.6904569375292917 30.25685774015115 -2.4462352649335277 0.5080377818244959 23.38484430114097 -0.6971713636826341 0.03794356790765358 6.328659736585641 -6.965285210946088 -2.945583803084078 -12.30531068830716 -24.23144270764896 -1.7128019813703175 6.148211108301153 -8.312281438210368 -4.07742659964641 -4.137237365784992 7.966653410502066 -1.134252502132424 -1.5547544998747003 -40.052661852064624 3.0254534557541963 -78.90277833772245 -8.411233194385597 0.007944381312856559 0.10826165801913296 4.537419416721765 -10.929034970966192 -8.154158300017968 4.845325474196343 2.02991480903559 -34.5709743950065 -1.9141831374604559 0.4787526865042233 -21.238626568746536 0.5257646972260843 0.040704185612310664 -4.97105009770225 4.081456905433727 1.437995106405456 -31.179897371043285 2.8310503198820802 0.6886839596143538 -27.326378296545258 1.1218679217013954 0.10307117867489343 -10.484555290427098 1.3665415567341226 -0.08530857398480064 -27.832369466070745 2.968534004520463 0.7595775980854901 -28.74464089391417 0.775569316100294 0.04881805262269096 -7.204684851149028 -0.8929508435439112 -1.7001046848343033 -29.931126699058105 1.9927205570497195 0.3291938772711585 -18.741310587748778 0.5266182969403989 0.023128071699544284 -4.9711289040734 10.632778534681403 2.0991670849128172 9.326920708573486 11.728009881899444 -3.2938259997931874 6.013848767869013 16.717344413687318 1.983927109984244 -0.9930148531540737 -14.49340307186742 3.3854929860233205 -6.085391055578312 -6.788271319992108 29.61989805058411 -5.818525714070985 -2.315719441082216 -20.28258351960812 12.235644761166785 -0.000006151529841857778 -0.003394526479492806 -7.754149057864386e-7 19.856001109685078 -1.6238835617673881 18.118724383798675 4.309848572894186 32.1681491874268 3.3508735949390993 3.753129988546492 -19.632787544225586 -14.55048220132516 -5.5099108718566144e-8 -0.00004606117354574389 -0.000004268525850907611
-0.5472613573074341 -0.6654136651318368 0.809824526309967 -2.6021466071688693 -10.98991631969986 -3.671718766010958 -0.5809843268590771 -0.48157637519125945 3.721400259165624 -0.1807808815875723 -1.294591615474166 1.6063053580942053 -0.49364434256525935 -11.914872916554472 3.8562810681664117 -2.2336972719989974 -45.76251856697788 9.573640320537265 0 0 0 0 0 0 0 0 0 -5.067041968147994 -0.24540411111683746 3.2489080685265317 16.660327511085935 -1.5141136931129064 73.78239571600415 6.418254854720885 0.0046446370299280705 -0.08273876840757428 1.600862646028142 17.705883336413258 4.722536628670788 -0.21557144739195064 -0.728971552518666 28.484454359648673 -2.6676292470829366 0.569648175358522 26.15596931892301 -1.3644045806454053 0.11738551412424077 12.088269781489394 -5.513066628920013 1.8404298415010887 23.465092292180444 -2.4354796375178016 0.48787611612604675 22.746485061015097 -1.2735241097161094 0.01688419785716002 11.45438793829326 -2.024262241584744 0.31542258391674793 23.45320132224033 -3.1603395348336387 0.8943297921366484 31.42842543947278 -1.4113989563958125 0.16829054026183787 12.769867973192605 2.9662317729572174 -2.6790612787127848 30.18674340287153 -2.4369431971801667 0.5040460742574423 23.291888757032485 -0.6958888291992177 0.037797152365445626 6.316780668928381 -6.891889131655536 -3.0283274254503905 -12.305912110000307 -24.23145345670994 -1.7128136192360042 6.148194548075664 -8.296954461148486 -4.113319969236687 -4.264324613873218 7.70996467987927 -1.0464103877249333 -1.7087232635298992 -40.33257428206954 2.660671309319685 -78.39595657961523 -8.340730546707144 0.007805100314099647 0.10736280936772136 4.628089286758529 -10.878264848543386 -8.432281812246135 4.941945253235002 2.0840652933666575 -34.43636748025802 -1.9202822635774455 0.4761633145726778 -21.177057370815014 0.5257571203018863 0.0407043923856678 -4.971051798827222 4.066207942863513 1.4191892719906045 -31.152254386709533 2.802529046699737 0.6740198939559544 -27.028703865800605 1.0957444288025784 0.09829754942404098 -10.23771070602197 1.989883848631045 0.3253585567615092 -27.497013387683655 2.9753664497129737 0.7633297310002743 -28.816917403426174 0.8387143229162456 0.057140771758733375 -7.796770528368627 -0.9157865240466045 -1.7002062218751754 -29.673355150588677 1.990597659719106 0.32846837116683214 -18.720543090746254 0.5266094927708473 0.023125787187843798 -4.971140811944466 10.611961832587836 2.096086526338154 9.225472833418513 11.728236321544477 -3.266622035802128 6.085590254493338 16.779735413960722 1.9670593241281196 -1.0267881340360325 -14.394351271829807 2.898834400349945 -5.934640678333408 -7.111082246007588 29.77316349703843 -5.963043470150405 -2.284157005217316 -20.10635350723815 12.21766690188866 -0.000006151529841857778 -0.003394526479492806 -7.754149057864386e-7 19.704481255602587 -2.224357737775475 17.988977571383046 4.166465494860077 32.488304181931696 3.2022345280251816 3.6900946541733823 -19.570120910803606 -14.283335826911438 1.2186400637008292e-7 -0.15460170623198644 -4.832217121929928e-8
